<mxfile host="Electron" agent="Mozilla/5.0 (Windows NT 10.0; Win64; x64) AppleWebKit/537.36 (KHTML, like Gecko) draw.io/28.0.6 Chrome/138.0.7204.100 Electron/37.2.3 Safari/537.36" version="28.0.6">
  <diagram name="Página-1" id="D8fjVcxvHu9BTcRip_pM">
    <mxGraphModel dx="1188" dy="701" grid="0" gridSize="10" guides="1" tooltips="1" connect="1" arrows="1" fold="1" page="1" pageScale="1" pageWidth="827" pageHeight="1169" background="none" math="0" shadow="0">
      <root>
        <mxCell id="0" />
        <mxCell id="1" parent="0" />
        <mxCell id="HbBHo42EGOacqQ-w0ac8-1" value="Anualidad de plataforma tecnológica carreras virtuales" style="shape=table;startSize=28;container=1;collapsible=0;childLayout=tableLayout;fixedRows=1;rowLines=0;fontStyle=0;strokeColor=default;fontSize=15;fontFamily=Times New Roman;" vertex="1" parent="1">
          <mxGeometry x="30" y="30" width="356.16502463054167" height="95.48275862068972" as="geometry" />
        </mxCell>
        <mxCell id="HbBHo42EGOacqQ-w0ac8-2" value="" style="shape=tableRow;horizontal=0;startSize=0;swimlaneHead=0;swimlaneBody=0;top=0;left=0;bottom=0;right=0;collapsible=0;dropTarget=0;fillColor=none;points=[[0,0.5],[1,0.5]];portConstraint=eastwest;strokeColor=inherit;fontSize=16;fontFamily=Times New Roman;" vertex="1" parent="HbBHo42EGOacqQ-w0ac8-1">
          <mxGeometry y="28" width="356.16502463054167" height="20" as="geometry" />
        </mxCell>
        <mxCell id="HbBHo42EGOacqQ-w0ac8-3" value="&lt;font style=&quot;font-size: 14px;&quot;&gt;Detalle&lt;/font&gt;&lt;div&gt;&lt;br&gt;&lt;/div&gt;" style="shape=partialRectangle;html=1;whiteSpace=wrap;connectable=0;fillColor=none;top=0;left=0;bottom=0;right=0;overflow=hidden;pointerEvents=1;strokeColor=inherit;fontSize=16;fontFamily=Times New Roman;" vertex="1" parent="HbBHo42EGOacqQ-w0ac8-2">
          <mxGeometry width="76" height="20" as="geometry">
            <mxRectangle width="76" height="20" as="alternateBounds" />
          </mxGeometry>
        </mxCell>
        <mxCell id="HbBHo42EGOacqQ-w0ac8-4" value="&lt;font style=&quot;font-size: 14px;&quot;&gt;Ciclo 01-2025&lt;/font&gt;" style="shape=partialRectangle;html=1;whiteSpace=wrap;connectable=0;fillColor=none;top=0;left=0;bottom=0;right=0;align=left;spacingLeft=6;overflow=hidden;strokeColor=inherit;fontSize=16;fontFamily=Times New Roman;" vertex="1" parent="HbBHo42EGOacqQ-w0ac8-2">
          <mxGeometry x="76" width="280" height="20" as="geometry">
            <mxRectangle width="280" height="20" as="alternateBounds" />
          </mxGeometry>
        </mxCell>
        <mxCell id="HbBHo42EGOacqQ-w0ac8-5" value="" style="shape=tableRow;horizontal=0;startSize=0;swimlaneHead=0;swimlaneBody=0;top=0;left=0;bottom=0;right=0;collapsible=0;dropTarget=0;fillColor=none;points=[[0,0.5],[1,0.5]];portConstraint=eastwest;strokeColor=inherit;fontSize=16;fontFamily=Times New Roman;" vertex="1" parent="HbBHo42EGOacqQ-w0ac8-1">
          <mxGeometry y="48" width="356.16502463054167" height="26" as="geometry" />
        </mxCell>
        <mxCell id="HbBHo42EGOacqQ-w0ac8-6" value="&lt;font style=&quot;font-size: 14px;&quot;&gt;Encargado&lt;/font&gt;" style="shape=partialRectangle;html=1;whiteSpace=wrap;connectable=0;fillColor=none;top=0;left=0;bottom=0;right=0;overflow=hidden;strokeColor=inherit;fontSize=16;fontFamily=Times New Roman;" vertex="1" parent="HbBHo42EGOacqQ-w0ac8-5">
          <mxGeometry width="76" height="26" as="geometry">
            <mxRectangle width="76" height="26" as="alternateBounds" />
          </mxGeometry>
        </mxCell>
        <mxCell id="HbBHo42EGOacqQ-w0ac8-7" value="&lt;span style=&quot;font-size: 14px;&quot;&gt;Mesalina Ramírez&lt;/span&gt;" style="shape=partialRectangle;html=1;whiteSpace=wrap;connectable=0;fillColor=none;top=0;left=0;bottom=0;right=0;align=left;spacingLeft=6;overflow=hidden;strokeColor=inherit;fontSize=16;fontFamily=Times New Roman;" vertex="1" parent="HbBHo42EGOacqQ-w0ac8-5">
          <mxGeometry x="76" width="280" height="26" as="geometry">
            <mxRectangle width="280" height="26" as="alternateBounds" />
          </mxGeometry>
        </mxCell>
        <mxCell id="HbBHo42EGOacqQ-w0ac8-8" value="" style="shape=tableRow;horizontal=0;startSize=0;swimlaneHead=0;swimlaneBody=0;top=0;left=0;bottom=0;right=0;collapsible=0;dropTarget=0;fillColor=none;points=[[0,0.5],[1,0.5]];portConstraint=eastwest;strokeColor=inherit;fontSize=16;fontFamily=Times New Roman;" vertex="1" parent="HbBHo42EGOacqQ-w0ac8-1">
          <mxGeometry y="74" width="356.16502463054167" height="20" as="geometry" />
        </mxCell>
        <mxCell id="HbBHo42EGOacqQ-w0ac8-9" value="" style="shape=partialRectangle;html=1;whiteSpace=wrap;connectable=0;fillColor=none;top=0;left=0;bottom=0;right=0;overflow=hidden;strokeColor=inherit;fontSize=16;fontFamily=Times New Roman;" vertex="1" parent="HbBHo42EGOacqQ-w0ac8-8">
          <mxGeometry width="76" height="20" as="geometry">
            <mxRectangle width="76" height="20" as="alternateBounds" />
          </mxGeometry>
        </mxCell>
        <mxCell id="HbBHo42EGOacqQ-w0ac8-10" value="" style="shape=partialRectangle;html=1;whiteSpace=wrap;connectable=0;fillColor=none;top=0;left=0;bottom=0;right=0;align=left;spacingLeft=6;overflow=hidden;strokeColor=inherit;fontSize=16;fontFamily=Times New Roman;" vertex="1" parent="HbBHo42EGOacqQ-w0ac8-8">
          <mxGeometry x="76" width="280" height="20" as="geometry">
            <mxRectangle width="280" height="20" as="alternateBounds" />
          </mxGeometry>
        </mxCell>
        <mxCell id="HbBHo42EGOacqQ-w0ac8-16" value="" style="edgeStyle=orthogonalEdgeStyle;rounded=0;orthogonalLoop=1;jettySize=auto;html=1;" edge="1" parent="1" source="HbBHo42EGOacqQ-w0ac8-14" target="HbBHo42EGOacqQ-w0ac8-15">
          <mxGeometry relative="1" as="geometry" />
        </mxCell>
        <mxCell id="HbBHo42EGOacqQ-w0ac8-14" value="Inicio y revisión de usuarios" style="rounded=0;whiteSpace=wrap;html=1;fontFamily=Times New Roman;fontSize=13;fillColor=#dae8fc;strokeColor=#6c8ebf;" vertex="1" parent="1">
          <mxGeometry x="353" y="169" width="120" height="46" as="geometry" />
        </mxCell>
        <mxCell id="HbBHo42EGOacqQ-w0ac8-18" value="" style="edgeStyle=orthogonalEdgeStyle;rounded=0;orthogonalLoop=1;jettySize=auto;html=1;" edge="1" parent="1" source="HbBHo42EGOacqQ-w0ac8-15" target="HbBHo42EGOacqQ-w0ac8-17">
          <mxGeometry relative="1" as="geometry" />
        </mxCell>
        <mxCell id="HbBHo42EGOacqQ-w0ac8-15" value="El área técnica generau un estadístico con el total de usuarios activos y lo remite a la Dirección de Utec Virtual" style="whiteSpace=wrap;html=1;fontSize=13;fontFamily=Times New Roman;rounded=0;" vertex="1" parent="1">
          <mxGeometry x="330.5" y="242" width="165" height="67" as="geometry" />
        </mxCell>
        <mxCell id="HbBHo42EGOacqQ-w0ac8-20" value="" style="edgeStyle=orthogonalEdgeStyle;rounded=0;orthogonalLoop=1;jettySize=auto;html=1;" edge="1" parent="1" source="HbBHo42EGOacqQ-w0ac8-17" target="HbBHo42EGOacqQ-w0ac8-19">
          <mxGeometry relative="1" as="geometry" />
        </mxCell>
        <mxCell id="HbBHo42EGOacqQ-w0ac8-17" value="La Dirección de Utec Virtual revisa los usarios del ciclo anterior y la fecha de vencimiento de la suscripción anual" style="whiteSpace=wrap;html=1;fontSize=13;fontFamily=Times New Roman;rounded=0;" vertex="1" parent="1">
          <mxGeometry x="322" y="336" width="182" height="72" as="geometry" />
        </mxCell>
        <mxCell id="HbBHo42EGOacqQ-w0ac8-22" value="" style="edgeStyle=orthogonalEdgeStyle;rounded=0;orthogonalLoop=1;jettySize=auto;html=1;" edge="1" parent="1" source="HbBHo42EGOacqQ-w0ac8-19" target="HbBHo42EGOacqQ-w0ac8-21">
          <mxGeometry relative="1" as="geometry" />
        </mxCell>
        <mxCell id="HbBHo42EGOacqQ-w0ac8-19" value="La Dirección de Utec Virtual inicia el trámite de renovación con al menos 3 semanas de anticipación" style="whiteSpace=wrap;html=1;fontSize=13;fontFamily=Times New Roman;rounded=0;" vertex="1" parent="1">
          <mxGeometry x="341" y="435" width="144" height="71" as="geometry" />
        </mxCell>
        <mxCell id="HbBHo42EGOacqQ-w0ac8-21" value="La VRA y la dirección de Educación Virtual deciden si se mantiene el mismo número de usuarios o si es neceario solicitar un aumento" style="whiteSpace=wrap;html=1;fontSize=13;fontFamily=Times New Roman;rounded=0;" vertex="1" parent="1">
          <mxGeometry x="325" y="536" width="176" height="82" as="geometry" />
        </mxCell>
      </root>
    </mxGraphModel>
  </diagram>
</mxfile>
